<svg id="Icons" enable-background="new 0 0 128 128" height="512" viewBox="0 0 128 128" width="512" xmlns="http://www.w3.org/2000/svg"><path id="Download" d="m128 65c0 15.439-12.563 28-28 28h-20c-2.211 0-4-1.791-4-4s1.789-4 4-4h20c11.027 0 20-8.973 20-20s-8.973-20-20-20h-4c-2.211 0-4-1.791-4-4 0-15.439-12.563-28-28-28s-28 12.561-28 28c0 2.209-1.789 4-4 4h-4c-11.027 0-20 8.973-20 20s8.973 20 20 20h20c2.211 0 4 1.791 4 4s-1.789 4-4 4h-20c-15.437 0-28-12.561-28-28s12.563-28 28-28h.223c1.996-17.975 17.277-32 35.777-32s33.781 14.025 35.777 32h.223c15.438 0 28 12.561 28 28zm-50.828 37.172-9.172 9.172v-50.344c0-2.209-1.789-4-4-4s-4 1.791-4 4v50.344l-9.172-9.172c-1.563-1.563-4.094-1.563-5.656 0s-1.563 4.094 0 5.656l16 16c.781.781 1.805 1.172 2.828 1.172s2.047-.391 2.828-1.172l16-16c1.563-1.563 1.563-4.094 0-5.656s-4.094-1.563-5.656 0z"/></svg>