<svg id="Outline" height="512" viewBox="0 0 32 32" width="512" xmlns="http://www.w3.org/2000/svg"><path d="m29.73911 7.63281c-.15201-.33917-.36456-.65254-.62192-.92969-.00001 0-5.82031-5.82031-5.82033-5.82033-.55721-.5572-1.33883-.88279-2.12694-.88279-.00003 0-8.16992 0-8.16992 0-1.6543 0-3 1.3457-3 3v1h-5c-1.6543 0-3 1.3457-3 3v22c0 1.6543 1.3457 3 3 3h14c1.6543 0 3-1.3457 3-3v-1h5c1.6543 0 3-1.3457 3-3 0 0 0-16.16398 0-16.16992 0-.42102-.09392-.82471-.26089-1.19727zm-3.15317-.63281h-2.58594c-.55176 0-1-.44824-1-1v-2.58594zm-6.58594 22c0 .55176-.44824 1-1 1h-14c-.55127 0-1-.44824-1-1v-22c0-.55176.44873-1 1-1h8v4c0 1.6543 1.3457 3 3 3h4zm-1.41406-18h-2.58594c-.55127 0-1-.44824-1-1v-2.58594zm8.41406 15h-5s0-13.16815 0-13.17187c0-.76065-.33329-1.57548-.87891-2.12109 0 0-5.82813-5.82813-5.82813-5.82813-.55544-.55544-1.33629-.87891-2.12157-.87891-.00001 0-1.17139 0-1.17139 0v-1c0-.55176.44873-1 1-1h8v4c0 1.6543 1.3457 3 3 3h4v16c0 .55176-.44824 1-1 1z"/></svg>