<svg id="Layer_1" enable-background="new 0 0 100 100" viewBox="0 0 100 100" xmlns="http://www.w3.org/2000/svg"><path d="m97 69.1412659-11.8699951-17.8200074c-.539917-.7900391-1.4400635-1.3200073-2.4700928-1.3200073h-65.3198223c-1.0300293 0-1.9301758.5299683-2.4700928 1.3200073l-11.8699951 17.8200074c-.3200684.4699707-.5 1.0299683-.5 1.6399536v14.8400269c0 3.2799683 2.6599121 5.9400024 5.9399414 5.9400024h83.1201172c3.2800293 0 5.9399414-2.6600342 5.9399414-5.9400024v-14.8400269c-.0000019-.6099854-.1799335-1.1699829-.5000019-1.6399536zm-83.9245872 16.4799804h-3.3308764c-.7205067 0-1.3045931-.5840836-1.3045931-1.3045959v-3.3208008c0-.7205124.5840864-1.3045959 1.3045931-1.3045959h3.3308764c.7205076 0 1.304594.5840836 1.304594 1.3045959v3.3208008c0 .7205124-.5840864 1.3045959-1.304594 1.3045959zm53.4300498 0h-3.3208656c-.7205048 0-1.3045921-.5840836-1.3045921-1.3045959v-3.3208008c0-.7205124.5840874-1.3045959 1.3045921-1.3045959h3.3208656c.7205124 0 1.3045959.5840836 1.3045959 1.3045959v3.3208008c.0000001.7205124-.5840835 1.3045959-1.3045959 1.3045959zm11.8798829 0h-3.3307495c-.7205124 0-1.3045959-.5840836-1.3045959-1.3045959v-3.3208008c0-.7205124.5840836-1.3045959 1.3045959-1.3045959h3.3307495c.7205048 0 1.3045959.5840836 1.3045959 1.3045959v3.3208008c0 .7205124-.5840912 1.3045959-1.3045959 1.3045959zm11.8701171 0h-3.3308792c-.7205048 0-1.3045883-.5840836-1.3045883-1.3045959v-3.3208008c0-.7205124.5840836-1.3045959 1.3045883-1.3045959h3.3308792c.7205048 0 1.3045959.5840836 1.3045959 1.3045959v3.3208008c.0000001.7205124-.5840911 1.3045959-1.3045959 1.3045959z"/><path d="m26.2500019 11.4075012c0-1.6399384-1.3288116-2.96875-2.96875-2.96875s-2.9687729 1.3288116-2.9687729 2.96875v32.65625h5.9375229z"/><path d="m79.6874771 11.4075012c0-1.6399384-1.3287964-2.96875-2.9687271-2.96875s-2.96875 1.3288117-2.96875 2.96875v32.65625h5.9374771z"/></svg>